# xmcd
#
# Track frame offsets: 
#        150
#        17279
#        34706
#        50308
#        71740
#        85930
#        104379
#        119454
#        135427
#        155752
#        170626
#        183675
#        200542
#        217060
#
# Disc length: 3117 seconds
#
# Revision: 0
# Processed by: cddbd v1.5.2PL0 Copyright (c) Steve Scherf et al.
# Submitted via: ExactAudioCopy v0.99pb5
#
DISCID=c70c2b0e
DTITLE=Mark Sterling - One Kind Favour
DYEAR=2013
DGENRE=Blues
TTITLE0=You're Gonna Miss Me
TTITLE1=Hard Time Killin' Floor
TTITLE2=Police Dog Blues
TTITLE3=Backwater Blues
TTITLE4=One Kind Favour
TTITLE5=Deep Blue Sea
TTITLE6=Coe Cow Blues
TTITLE7=Why Don't You Live So God Can Use You
TTITLE8=That Ain't Right
TTITLE9=Cry For Me
TTITLE10=Yo Yo Blues
TTITLE11=How Long
TTITLE12=Dark Was The Night
TTITLE13=Ain't No Tellin'
EXTD=
EXTT0=
EXTT1=
EXTT2=
EXTT3=
EXTT4=
EXTT5=
EXTT6=
EXTT7=
EXTT8=
EXTT9=
EXTT10=
EXTT11=
EXTT12=
EXTT13=
PLAYORDER=
